<?xml version="1.0" encoding="UTF-8"?>
<svg width="80px" height="52px" viewBox="0 0 80 52" version="1.1" xmlns="http://www.w3.org/2000/svg" xmlns:xlink="http://www.w3.org/1999/xlink">
    <!-- Generator: Sketch 53.2 (72643) - https://sketchapp.com -->
    <title>AL - white Copy</title>
    <desc>Created with Sketch.</desc>
    <g id="Final" stroke="none" stroke-width="1" fill="none" fill-rule="evenodd">
        <g id="AL---white-Copy" fill="#FFFFFF" fill-rule="nonzero">
            <g id="Group-2" transform="translate(3.883495, 0.000000)">
                <polyline id="Fill-65" points="56.1099043 32.0167354 52.8978728 39.5996464 72.8528126 39.5996464 76.063551 32.0167354"></polyline>
                <polygon id="Fill-67" points="51.9237543 39.4943283 47.0278367 31.8896372 51.5973165 21.0575514 62.6463257 14.11264 55.1402019 31.8896372"></polygon>
                <polygon id="Fill-69" points="3.28018971 31.8807677 0.0675476016 39.4943283 20.4134184 39.4943283 63.2012051 12.5979404 68.5163618 0 17.8004781 31.8807677"></polygon>
            </g>
            <path d="M3.49483404,43.5889395 L2.33882171,48.0479574 L4.65209274,48.0479574 L3.49483404,43.5889395 Z M5.42609129,51.2621359 L4.94062843,49.4174136 L2.05028602,49.4174136 L1.56357678,51.2621359 L0,51.2621359 L2.62798059,41.9417476 L4.36231067,41.9417476 L6.99029126,51.2621359 L5.42609129,51.2621359 Z" id="Fill-71"></path>
            <polygon id="Fill-73" points="8.54368932 51.2621359 10.0970874 51.2621359 10.0970874 41.9417476 8.54368932 41.9417476"></polygon>
            <path d="M16.147578,44.8337791 C16.147578,43.9110864 15.5998025,43.2972837 14.7353979,43.2972837 L13.2370509,43.2972837 L13.2370509,46.3696115 L14.7353979,46.3696115 C15.5998025,46.3696115 16.147578,45.7558087 16.147578,44.8337791 Z M16.0757722,51.2621359 L14.4338136,47.7390675 L13.2370509,47.7390675 L13.2370509,51.2621359 L11.6504854,51.2621359 L11.6504854,41.9417476 L14.9658602,41.9417476 C16.6385926,41.9417476 17.7936397,43.1004161 17.7936397,44.8198591 C17.7936397,46.439874 16.8553776,47.2518699 15.9896053,47.4745889 L17.8640777,51.2621359 L16.0757722,51.2621359 Z" id="Fill-75"></path>
            <path d="M22.6324428,44.8337791 C22.6324428,43.9250064 22.1452399,43.2972837 21.3777285,43.2972837 L20.0489933,43.2972837 L20.0489933,46.3696115 L21.3777285,46.3696115 C22.1452399,46.3696115 22.6324428,45.7558087 22.6324428,44.8337791 Z M18.6407767,51.2621359 L18.6407767,41.9417476 L21.5451855,41.9417476 C23.2324973,41.9417476 24.0776699,43.2820381 24.0776699,44.8337791 C24.0776699,46.3987771 23.2197559,47.7258105 21.5451855,47.7258105 L20.0489933,47.7258105 L20.0489933,51.2621359 L18.6407767,51.2621359 Z" id="Fill-76"></path>
            <path d="M31.1377282,46.6016214 C31.1377282,44.7096088 30.4215352,43.266733 29.1188047,43.266733 C27.817309,43.266733 27.1017334,44.7096088 27.1017334,46.6016214 C27.1017334,48.4795383 27.817309,49.9377912 29.1188047,49.9377912 C30.4215352,49.9377912 31.1377282,48.4795383 31.1377282,46.6016214 M25.631068,46.6016214 C25.631068,43.9522913 26.9060151,41.9417476 29.1188047,41.9417476 C31.3328292,41.9417476 32.6213592,43.9522913 32.6213592,46.6016214 C32.6213592,49.2496701 31.3328292,51.2621359 29.1188047,51.2621359 C26.9060151,51.2621359 25.631068,49.2496701 25.631068,46.6016214" id="Fill-77"></path>
            <path d="M38.6715438,44.8337791 C38.6715438,43.9110864 38.1238889,43.2972837 37.2603583,43.2972837 L35.7596062,43.2972837 L35.7596062,46.3696115 L37.2603583,46.3696115 C38.1238889,46.3696115 38.6715438,45.7558087 38.6715438,44.8337791 Z M38.5997538,51.2621359 L36.9561056,47.7390675 L35.7596062,47.7390675 L35.7596062,51.2621359 L34.1747573,51.2621359 L34.1747573,41.9417476 L37.4894025,41.9417476 C39.1624504,41.9417476 40.3151922,43.1004161 40.3151922,44.8198591 C40.3151922,46.439874 39.3785041,47.2518699 38.5149734,47.4745889 L40.3883495,51.2621359 L38.5997538,51.2621359 Z" id="Fill-78"></path>
            <polygon id="Fill-79" points="43.1746579 51.2621359 43.1746579 43.2983201 41.1650485 43.2983201 41.1650485 41.9417476 46.6019417 41.9417476 46.6019417 43.2983201 44.6077957 43.2983201 44.6077957 51.2621359"></polygon>
            <polygon id="Fill-80" points="48.9320388 51.2621359 48.9320388 41.9417476 50.6709172 41.9417476 50.6709172 49.6119819 53.592233 49.6119819 53.592233 51.2621359"></polygon>
            <path d="M57.4740836,43.9116092 L56.4077424,47.9646724 L58.5581862,47.9646724 L57.4740836,43.9116092 Z M59.3469236,51.2621359 L58.9173611,49.6130728 L56.0465941,49.6130728 L55.6025593,51.2621359 L53.592233,51.2621359 L56.3656413,41.9417476 L58.5989717,41.9417476 L61.3592233,51.2621359 L59.3469236,51.2621359 Z" id="Fill-81"></path>
            <path d="M66.5183335,48.4817313 C66.5183335,47.8386715 66.158309,47.3354939 65.4756568,47.3354939 L63.9265372,47.3354939 L63.9265372,49.6140468 L65.4756568,49.6140468 C66.1430967,49.6140468 66.5183335,49.2089855 66.5183335,48.4817313 Z M66.3712813,44.6379578 C66.3712813,44.022079 66.0499213,43.5891737 65.4103707,43.5891737 L63.9265372,43.5891737 L63.9265372,45.7000007 L65.4103707,45.7000007 C66.0499213,45.7000007 66.3712813,45.2816805 66.3712813,44.6379578 Z M62.1359223,51.2621359 L62.1359223,41.9417476 L65.8363152,41.9417476 C67.4399456,41.9417476 68.2018284,43.0455563 68.2018284,44.3170909 C68.2018284,45.4779132 67.5743209,46.246933 66.7579273,46.4544357 C67.6668625,46.6089027 68.3495146,47.5880772 68.3495146,48.7323257 C68.3495146,50.1589902 67.586364,51.2621359 65.9573798,51.2621359 L62.1359223,51.2621359 Z" id="Fill-82"></path>
            <path d="M69.1262136,50.0870763 L70.0153498,48.6832837 C70.5204673,49.2496701 71.3247696,49.6552387 72.22621,49.6552387 C73.0590063,49.6552387 73.4825279,49.2086648 73.4825279,48.6557332 C73.4825279,47.0610094 69.4014378,47.629318 69.4014378,44.5757007 C69.4014378,43.1584533 70.5204673,41.9417476 72.4042963,41.9417476 C73.5239733,41.9417476 74.4798109,42.3056701 75.1759664,42.941253 L74.315324,44.3187766 C73.7694086,43.7914733 73.0590063,43.5492855 72.3628508,43.5492855 C71.6945415,43.5492855 71.2716676,43.9279443 71.2716676,44.4680616 C71.2716676,45.8853092 75.3398058,45.4823034 75.3398058,48.5058075 C75.3398058,50.0742621 74.2602791,51.2621359 72.2398094,51.2621359 C70.8610977,51.2621359 69.8508629,50.8168435 69.1262136,50.0870763" id="Fill-83"></path>
        </g>
    </g>
</svg>